<?xml version="1.0" encoding="UTF-8"?>
<svg id="Capa_2" data-name="Capa 2" xmlns="http://www.w3.org/2000/svg" viewBox="0 0 398.39 398.39">
  <defs>
    <style>
      .cls-1 {
        fill: #5c5fad;
      }
    </style>
  </defs>
  <g id="Capa_1-2" data-name="Capa 1">
    <path class="cls-1" d="m398.39,199.2c0,25.79-22.45,46.93-31.74,69.36s-9.08,53.98-26.6,71.5c-17.52,17.52-48.25,16.96-71.5,26.6-22.42,9.3-43.57,31.74-69.35,31.74s-46.93-22.45-69.36-31.74c-23.25-9.64-53.98-9.08-71.5-26.6-17.52-17.52-16.96-48.25-26.6-71.5C22.45,246.13,0,224.98,0,199.2s22.45-46.93,31.74-69.36,9.08-53.98,26.6-71.5,48.25-16.96,71.5-26.6C152.27,22.45,173.41,0,199.2,0s46.93,22.45,69.36,31.74c23.25,9.64,53.98,9.08,71.5,26.6,17.52,17.52,16.96,48.25,26.6,71.5,9.3,22.42,31.74,43.57,31.74,69.35Z"/>
  </g>
</svg>