<svg id="visual" viewBox="0 0 900 600" width="900" height="600" xmlns="http://www.w3.org/2000/svg" xmlns:xlink="http://www.w3.org/1999/xlink" version="1.1"><rect x="0" y="0" width="900" height="600" fill="#c5ac66"></rect><defs><linearGradient id="grad1_0" x1="33.3%" y1="0%" x2="100%" y2="100%"><stop offset="20%" stop-color="#c5ac66" stop-opacity="1"></stop><stop offset="80%" stop-color="#c5ac66" stop-opacity="1"></stop></linearGradient></defs><defs><linearGradient id="grad2_0" x1="0%" y1="0%" x2="66.7%" y2="100%"><stop offset="20%" stop-color="#c5ac66" stop-opacity="1"></stop><stop offset="80%" stop-color="#c5ac66" stop-opacity="1"></stop></linearGradient></defs><g transform="translate(900, 0)"><path d="M0 486.7C-59.8 472.2 -119.6 457.6 -181 437C-242.4 416.4 -305.3 389.9 -344.2 344.2C-383 298.5 -397.8 233.5 -417.6 173C-437.3 112.4 -462 56.2 -486.7 0L0 0Z" fill="#52549b"></path></g><g transform="translate(0, 600)"><path d="M0 -486.7C66.1 -482.2 132.1 -477.7 186.3 -449.7C240.4 -421.7 282.6 -370.4 322.4 -322.4C362.3 -274.5 399.8 -230 426.8 -176.8C453.8 -123.6 470.3 -61.8 486.7 0L0 0Z" fill="#52549b"></path></g></svg>